<?xml version="1.0" encoding="utf-8"?>
<!-- Generator: Adobe Illustrator 16.0.0, SVG Export Plug-In . SVG Version: 6.00 Build 0)  -->
<!DOCTYPE svg PUBLIC "-//W3C//DTD SVG 1.1//EN" "http://www.w3.org/Graphics/SVG/1.1/DTD/svg11.dtd">
<svg version="1.1" id="Layer_1" xmlns="http://www.w3.org/2000/svg" xmlns:xlink="http://www.w3.org/1999/xlink" x="0px" y="0px"
	 width="40px" height="40px" viewBox="0 0 40 40" enable-background="new 0 0 40 40" xml:space="preserve">
<g>
	<g>
		<path fill-rule="evenodd" clip-rule="evenodd" fill="#DDDDDD" d="M36.5,27.5h-28C6.567,27.5,5,29.067,5,31s1.567,3.5,3.5,3.5h28
			c1.933,0,3.5-1.567,3.5-3.5S38.433,27.5,36.5,27.5z M36.5,16.5h-33C1.567,16.5,0,18.067,0,20c0,1.933,1.567,3.5,3.5,3.5h33
			c1.933,0,3.5-1.567,3.5-3.5C40,18.067,38.433,16.5,36.5,16.5z M3.5,12.5h33c1.933,0,3.5-1.567,3.5-3.5s-1.567-3.5-3.5-3.5h-33
			C1.567,5.5,0,7.067,0,9S1.567,12.5,3.5,12.5z"/>
	</g>
</g>
</svg>
