<?xml version="1.0" encoding="utf-8"?>
<!-- Generator: Adobe Illustrator 18.0.0, SVG Export Plug-In . SVG Version: 6.00 Build 0)  -->
<!DOCTYPE svg PUBLIC "-//W3C//DTD SVG 1.1//EN" "http://www.w3.org/Graphics/SVG/1.1/DTD/svg11.dtd">
<svg version="1.1" id="Layer_1" xmlns="http://www.w3.org/2000/svg" xmlns:xlink="http://www.w3.org/1999/xlink" x="0px" y="0px"
	 viewBox="0 0 160 160" enable-background="new 0 0 160 160" xml:space="preserve">
<g>
	<g>
		<text transform="matrix(1 0 0 1 39.0815 96.3052)" fill="#DDDDDD" font-family="'PassionOne-Regular'" font-size="60">KTV</text>
	</g>
</g>
<g>
	<g>
		<path fill="none" stroke="#000000" stroke-width="3" stroke-miterlimit="10" d="M147.499,29.176h-44.692
			C100.27,23.025,91.021,18.466,80,18.466c-11.022,0-20.269,4.559-22.807,10.709H12.5c-5.523,0-10,4.359-10,9.735v83.925
			c0,5.378,4.477,9.737,10,9.737h31.813l-20.75,20.087l9.469,4.564l25.459-24.65h45.019l25.471,24.658l9.467-4.563l-20.756-20.095
			H147.5c5.523,0,10.001-4.359,10.001-9.737V38.911C157.5,33.535,153.021,29.176,147.499,29.176z"/>
	</g>
</g>
<path fill="none" stroke="#000000" stroke-width="2" stroke-miterlimit="10" d="M113.243,3.127l-1.37-1.22L90.826,18.515
	l1.371,1.219L113.243,3.127z"/>
<path fill="none" stroke="#000000" stroke-width="2" stroke-miterlimit="10" d="M49.755,3.127l1.371-1.22l21.047,16.608
	l-1.372,1.219L49.755,3.127z"/>
</svg>
