<?xml version="1.0" encoding="utf-8"?>
<!-- Generator: Adobe Illustrator 18.0.0, SVG Export Plug-In . SVG Version: 6.00 Build 0)  -->
<!DOCTYPE svg PUBLIC "-//W3C//DTD SVG 1.1//EN" "http://www.w3.org/Graphics/SVG/1.1/DTD/svg11.dtd">
<svg version="1.1" id="Layer_1" xmlns="http://www.w3.org/2000/svg" xmlns:xlink="http://www.w3.org/1999/xlink" x="0px" y="0px"
	 viewBox="0 0 220 220" enable-background="new 0 0 220 220" xml:space="preserve">
<g id="Layer_3">
	<g>
		<polygon fill="#FFFFFF" stroke="#000000" stroke-width="3" stroke-miterlimit="10" points="32,211.1 45,217.1 80.1,184.5 
			60.7,184.5 		"/>
		<polygon fill="#FFFFFF" stroke="#000000" stroke-width="3" stroke-miterlimit="10" points="189.4,211.1 160.7,184.5 141.3,184.5 
			176.5,217.1 		"/>
	</g>
</g>
<g id="Layer_2">
	<path d="M69.7,3.9l1.6-1.7l24.3,22.9L94,26.8L69.7,3.9z"/>
	<path d="M148.1,3.9l-1.6-1.7l-24.3,22.9l1.6,1.7L148.1,3.9z"/>
</g>
<g id="Layer_4">
	<g>
		<path fill="#FFFFFF" stroke="#000000" stroke-width="3" stroke-miterlimit="10" d="M109.3,24.6c-15.1,0-27.8,6.4-31.3,14.9h62.5
			C137.1,30.9,124.4,24.6,109.3,24.6z"/>
	</g>
</g>
<g id="Layer_1_1_">
	<g>
		<g>
			<path fill="none" stroke="#000000" stroke-width="3" stroke-miterlimit="10" d="M201.8,39.5h-185c-7.6,0-13.7,6.1-13.7,13.6
				v117.1c0,7.5,6.1,13.6,13.7,13.6h185c7.6,0,13.7-6.1,13.7-13.6V53.1C215.5,45.6,209.4,39.5,201.8,39.5z"/>
		</g>
	</g>
</g>
<g>
	<image overflow="visible" opacity="0.3" width="165" height="126" xlink:href="348D0BD0.png"  transform="matrix(1 0 0 1 28 48)">
	</image>
	<g>
		<text transform="matrix(1 0 0 1 40.1121 138.4619)" fill="#AFAFAF" font-family="'PassionOne-Regular'" font-size="100">KTV</text>
	</g>
</g>
</svg>
