<?xml version="1.0" encoding="utf-8"?>
<!-- Generator: Adobe Illustrator 18.0.0, SVG Export Plug-In . SVG Version: 6.00 Build 0)  -->
<!DOCTYPE svg PUBLIC "-//W3C//DTD SVG 1.1//EN" "http://www.w3.org/Graphics/SVG/1.1/DTD/svg11.dtd">
<svg version="1.1" id="Layer_1" xmlns="http://www.w3.org/2000/svg" xmlns:xlink="http://www.w3.org/1999/xlink" x="0px" y="0px"
	 viewBox="0 0 48 48" enable-background="new 0 0 48 48" xml:space="preserve">
<g>
	<g>
		<path d="M16.7,4.9c7.2,1,13.9,1.9,19,7.2c5.9,6.1,5.9,14.9-0.3,20.8c-3,2.8-6.4,5-10.5,6.1c-0.9,0.2-1.2,0.5-1.5-1
			c-0.4-2.6,1.6-4.8,0.8-7.4c-0.2-0.6,0.6-0.5,1-0.6c2.3-0.8,2.6-1.6,1.3-3.7c-0.6-1-1.3-2-2-2.9c-1.1-1.4-2.2-2.8-0.9-4.8
			c0.5-0.7,0-1.7-0.2-2.5C22.4,12,20,8.5,16.7,4.9z"/>
		<path d="M7.4,44.4c1.3-0.7,2.2-0.2,3.1,0.1c9.1,2.2,17.6,1,25.2-4.7c11.6-8.8,11-24.7-1.1-32.8c-6.3-4.3-13.4-5.4-20.8-4.8
			C12,2.3,11,3,11.2,5.2c0.2,2.5,0.1,5,0,7.5c0,1.5,0.3,2.6,1.4,3.7c2.3,2.3,2.4,6,0.5,8.5C11,27.7,7.5,28.5,4.4,27
			c-2.9-1.5-4.4-4.9-3.4-8.1c0.4-1.2,1-2.4,2.2-3c1.5-0.7,2-1.9,2.3-3.4C5.9,10.2,6.5,8,7,5.7c0.3-1.4,1-2.2,2.2-2.8
			c9.1-4.1,27.3-2.5,35.5,11.1c4.9,8,2.9,19.2-4.8,25.5c-9.5,7.8-20.2,9.1-31.7,5.4C8,44.9,7.8,44.7,7.4,44.4z"/>
		<path d="M14.3,39.3c5-6.1,5.8-12.6,2.7-19.5c-0.4-1-0.9-2-1.7-2.6c-2.1-1.6-2.4-3.7-2.2-6.2c0.1-1.6,0-3.2,0-4.8
			c0-1.2,0.5-1.4,1.5-0.8c4.2,2.7,6.1,6.9,7.3,11.6c0,0.1,0,0.3,0,0.4c-2,3.1,0.3,5.2,1.7,7.4c1.3,2.2,1.4,2.1-0.8,3.6
			c-0.6,0.4-0.9,0.8-0.8,1.5c0.3,2.6-1,5.1-0.5,7.7c0.2,0.9-0.6,1.6-1.5,1.9C18.1,40,16.2,40,14.3,39.3z"/>
	</g>
</g>
</svg>
