<?xml version="1.0" encoding="utf-8"?>
<!-- Generator: Adobe Illustrator 18.0.0, SVG Export Plug-In . SVG Version: 6.00 Build 0)  -->
<!DOCTYPE svg PUBLIC "-//W3C//DTD SVG 1.1//EN" "http://www.w3.org/Graphics/SVG/1.1/DTD/svg11.dtd">
<svg version="1.1" id="Layer_1" xmlns="http://www.w3.org/2000/svg" xmlns:xlink="http://www.w3.org/1999/xlink" x="0px" y="0px"
	 viewBox="0 0 80 80" enable-background="new 0 0 80 80" xml:space="preserve">
<path fill-rule="evenodd" clip-rule="evenodd" d="M0,70.376h1.095v1.097h1.097h1.097v1.097h1.095h1.097v1.097h1.096h1.097v1.094
	H8.77h1.097h1.097v1.097h1.095h1.097h1.095v1.097h1.097h2.193h1.097v1.097h13.156v-1.097h4.385v-1.097h3.29v-1.097h3.289v-1.094
	h2.191V72.57h2.194v-1.097h2.192v-1.097h1.096v-1.097h1.097v-1.094h1.097v-1.097h1.097v-1.097h1.095v-1.097h1.095v-1.097h1.097
	v-1.094h1.097v-1.097h1.097V60.51h1.094v-1.097h1.097v-2.191h1.097v-1.097h1.097v-2.194h1.097V51.74h1.094v-2.194h1.097v-1.097
	v-1.094h1.097v-3.291h1.097v-3.288h1.097V36.39h1.094v-5.482h1.097V19.945v-1.097h1.097v-1.096h1.097v-1.096h1.097v-1.096h1.094
	v-1.096h1.097v-1.097h1.097V12.27h1.097v-1.096v-1.096h-1.097v1.096h-1.097v1.096h-2.191h-2.194h-1.097v-1.096h1.097v-1.096h1.097
	V8.981h1.097V7.885V6.788h1.094V4.595h1.097V3.499h-1.097h-1.094v1.096h-2.194v1.096h-3.288v1.096h-2.194V5.692h-1.097V4.595h-1.097
	V3.499h-1.094V2.403h-2.194V1.307h-3.288V0.21h-5.482v1.097H50.43v1.096h-1.096h-1.095v1.096h-2.194v1.096h-1.097v1.096h-1.095
	v2.193h-1.095v1.096h-1.097v1.096v1.096h-1.097v3.289h-1.095v9.867h-6.579v-1.095h-3.288h-1.097v-1.097h-3.29v-1.096h-2.192v-1.096
	H20.83v-1.097h-2.192v-1.096h-1.097v-1.096h-1.096h-1.097v-1.096h-1.097v-1.096h-1.095v-1.097h-1.097V12.27h-1.095v-1.096H9.867
	v-1.096H8.77V8.981H7.674V7.885H6.577V6.788H5.482V4.595H4.385v1.096v1.096H3.289v4.386H2.192v3.289h1.097v1.096v1.096v2.192v1.097
	v1.096h1.095v2.193l0,0h1.097v1.095v1.097h1.096v1.096h1.097v1.097v1.095H8.77v1.097H7.674H6.577H5.482v-1.097H3.289v-1.095H2.192
	v2.192h1.097v1.097v1.095v2.192v1.097h1.095v1.097v1.096v1.097h1.097v1.096h1.096v1.098v1.097h1.097v1.094H8.77v1.097h1.097h1.097
	v1.097h1.095v1.097h2.192v1.097v1.094H8.77v2.194h1.097v2.191h1.097v1.097h1.095v1.097h1.097v1.097h1.095v1.097h1.097v1.094h1.097
	v1.097h2.193l1.095,1.097h2.194h1.095v2.194h-1.095v1.094H20.83v1.097h-1.097h-1.095v1.097h-2.193v1.097h-2.194v1.097h-3.288v1.094
	H5.482H2.192H0V70.376z"/>
</svg>
