<?xml version="1.0" encoding="utf-8"?>
<!-- Generator: Adobe Illustrator 18.0.0, SVG Export Plug-In . SVG Version: 6.00 Build 0)  -->
<!DOCTYPE svg PUBLIC "-//W3C//DTD SVG 1.1//EN" "http://www.w3.org/Graphics/SVG/1.1/DTD/svg11.dtd">
<svg version="1.1" id="Layer_1" xmlns="http://www.w3.org/2000/svg" xmlns:xlink="http://www.w3.org/1999/xlink" x="0px" y="0px"
	 viewBox="0 0 80 80" enable-background="new 0 0 80 80" xml:space="preserve">
<path fill-rule="evenodd" clip-rule="evenodd" fill="#070707" d="M19.341,78.97v-7.897H4.863v-1.316H3.547V13.162h1.316V10.53h1.316
	V6.581h1.316V1.316h1.316V0h68.441v46.067h-1.316v1.315h-1.316v1.316h-1.316v1.318h-1.316v1.315h-1.316v1.316h-1.316v1.316H68.04
	v1.316h-1.316v1.318h-1.316v1.314h-1.316v1.316h-1.316v1.318h-1.316v1.314h-1.316v1.316h-1.316v1.316h-1.315v1.316h-1.318v1.316
	h-1.316v1.316h-1.315v1.316h-1.318v1.316H37.767v1.316h-1.316v1.316h-1.316v1.316h-1.316v1.316h-1.316v1.316h-1.316v1.316h-2.632
	v1.316h-9.213V78.97z"/>
<path fill-rule="evenodd" clip-rule="evenodd" fill="#FFFFFF" d="M15.392,6.581v48.698h13.163v7.897h2.632V61.86h1.316v-1.314h1.316
	v-1.318h1.316v-1.316h1.316v-1.314h1.316v-1.318h21.059v-1.316h1.316v-1.316h1.316V51.33h1.316v-1.315h1.316v-1.318h1.316v-1.316
	h1.316v-1.315h1.316v-1.318h1.316v-1.316h1.316V6.581H15.392z"/>
<path fill-rule="evenodd" clip-rule="evenodd" fill="#070707" d="M33.818,21.059v18.427h6.581V21.059H33.818z"/>
<path fill-rule="evenodd" clip-rule="evenodd" d="M52.245,21.059v18.427h5.266V21.059H52.245z"/>
</svg>
